<svg width="200" height="200" viewBox="0 0 200 200" fill="none" xmlns="http://www.w3.org/2000/svg">
<rect width="200" height="200" fill="#1D1D14"/>
<circle cx="100" cy="100" r="40" fill="#1DB954"/>
<svg x="70" y="70" width="60" height="60" viewBox="0 0 24 24" fill="none" xmlns="http://www.w3.org/2000/svg">
<path d="M12 2C6.48 2 2 6.48 2 12S6.48 22 12 22S22 17.52 22 12S17.52 2 12 2ZM12 20C7.59 20 4 16.41 4 12S7.59 4 12 4S20 7.59 20 12S16.41 20 12 20ZM12 6C6.48 6 2 10.48 2 16S6.48 26 12 26S22 21.52 22 16S17.52 6 12 6Z" fill="#000"/>
</svg>
</svg>
